<svg xmlns="http://www.w3.org/2000/svg" xmlns:xlink="http://www.w3.org/1999/xlink" width="500" zoomAndPan="magnify" viewBox="0 0 375 374.999991" height="500" preserveAspectRatio="xMidYMid meet" version="1.2"><defs><radialGradient gradientTransform="matrix(1,0,0,1,0.0000045,0)" id="97e1b59e4a" gradientUnits="userSpaceOnUse" r="530.33023" cx="0" fx="0" cy="0" fy="0"><stop style="stop-color:#004aad;stop-opacity:1;" offset="0"/><stop style="stop-color:#014aad;stop-opacity:1;" offset="0.00390625"/><stop style="stop-color:#024aae;stop-opacity:1;" offset="0.0078125"/><stop style="stop-color:#034aae;stop-opacity:1;" offset="0.0117188"/><stop style="stop-color:#044bae;stop-opacity:1;" offset="0.015625"/><stop style="stop-color:#044bae;stop-opacity:1;" offset="0.0195312"/><stop style="stop-color:#054bae;stop-opacity:1;" offset="0.0234375"/><stop style="stop-color:#064baf;stop-opacity:1;" offset="0.0273438"/><stop style="stop-color:#074baf;stop-opacity:1;" offset="0.03125"/><stop style="stop-color:#084baf;stop-opacity:1;" offset="0.0351562"/><stop style="stop-color:#084baf;stop-opacity:1;" offset="0.0390625"/><stop style="stop-color:#094cb0;stop-opacity:1;" offset="0.0429688"/><stop style="stop-color:#0a4cb0;stop-opacity:1;" offset="0.046875"/><stop style="stop-color:#0b4cb0;stop-opacity:1;" offset="0.0507812"/><stop style="stop-color:#0b4cb0;stop-opacity:1;" offset="0.0546875"/><stop style="stop-color:#0c4cb0;stop-opacity:1;" offset="0.0585938"/><stop style="stop-color:#0d4cb1;stop-opacity:1;" offset="0.0625"/><stop style="stop-color:#0e4cb1;stop-opacity:1;" offset="0.0664062"/><stop style="stop-color:#0f4cb1;stop-opacity:1;" offset="0.0703125"/><stop style="stop-color:#0f4db1;stop-opacity:1;" offset="0.0742188"/><stop style="stop-color:#104db2;stop-opacity:1;" offset="0.078125"/><stop style="stop-color:#114db2;stop-opacity:1;" offset="0.0820312"/><stop style="stop-color:#124db2;stop-opacity:1;" offset="0.0859375"/><stop style="stop-color:#134db2;stop-opacity:1;" offset="0.0898438"/><stop style="stop-color:#134db2;stop-opacity:1;" offset="0.09375"/><stop style="stop-color:#144db3;stop-opacity:1;" offset="0.0976562"/><stop style="stop-color:#154eb3;stop-opacity:1;" offset="0.101562"/><stop style="stop-color:#164eb3;stop-opacity:1;" offset="0.105469"/><stop style="stop-color:#174eb3;stop-opacity:1;" offset="0.109375"/><stop style="stop-color:#174eb4;stop-opacity:1;" offset="0.113281"/><stop style="stop-color:#184eb4;stop-opacity:1;" offset="0.117188"/><stop style="stop-color:#194eb4;stop-opacity:1;" offset="0.121094"/><stop style="stop-color:#1a4eb4;stop-opacity:1;" offset="0.125"/><stop style="stop-color:#1b4eb4;stop-opacity:1;" offset="0.128906"/><stop style="stop-color:#1b4fb5;stop-opacity:1;" offset="0.132812"/><stop style="stop-color:#1c4fb5;stop-opacity:1;" offset="0.136719"/><stop style="stop-color:#1d4fb5;stop-opacity:1;" offset="0.140625"/><stop style="stop-color:#1e4fb5;stop-opacity:1;" offset="0.144531"/><stop style="stop-color:#1f4fb6;stop-opacity:1;" offset="0.148438"/><stop style="stop-color:#1f4fb6;stop-opacity:1;" offset="0.152344"/><stop style="stop-color:#204fb6;stop-opacity:1;" offset="0.15625"/><stop style="stop-color:#2150b6;stop-opacity:1;" offset="0.160156"/><stop style="stop-color:#2250b6;stop-opacity:1;" offset="0.164062"/><stop style="stop-color:#2250b7;stop-opacity:1;" offset="0.167969"/><stop style="stop-color:#2350b7;stop-opacity:1;" offset="0.171875"/><stop style="stop-color:#2450b7;stop-opacity:1;" offset="0.175781"/><stop style="stop-color:#2550b7;stop-opacity:1;" offset="0.179688"/><stop style="stop-color:#2650b8;stop-opacity:1;" offset="0.183594"/><stop style="stop-color:#2650b8;stop-opacity:1;" offset="0.1875"/><stop style="stop-color:#2751b8;stop-opacity:1;" offset="0.191406"/><stop style="stop-color:#2851b8;stop-opacity:1;" offset="0.195312"/><stop style="stop-color:#2951b8;stop-opacity:1;" offset="0.199219"/><stop style="stop-color:#2a51b9;stop-opacity:1;" offset="0.203125"/><stop style="stop-color:#2a51b9;stop-opacity:1;" offset="0.207031"/><stop style="stop-color:#2b51b9;stop-opacity:1;" offset="0.210938"/><stop style="stop-color:#2c51b9;stop-opacity:1;" offset="0.214844"/><stop style="stop-color:#2d52ba;stop-opacity:1;" offset="0.21875"/><stop style="stop-color:#2e52ba;stop-opacity:1;" offset="0.222656"/><stop style="stop-color:#2e52ba;stop-opacity:1;" offset="0.226562"/><stop style="stop-color:#2f52ba;stop-opacity:1;" offset="0.230469"/><stop style="stop-color:#3052ba;stop-opacity:1;" offset="0.234375"/><stop style="stop-color:#3152bb;stop-opacity:1;" offset="0.238281"/><stop style="stop-color:#3252bb;stop-opacity:1;" offset="0.242188"/><stop style="stop-color:#3252bb;stop-opacity:1;" offset="0.246094"/><stop style="stop-color:#3353bb;stop-opacity:1;" offset="0.25"/><stop style="stop-color:#3453bc;stop-opacity:1;" offset="0.253906"/><stop style="stop-color:#3553bc;stop-opacity:1;" offset="0.257812"/><stop style="stop-color:#3653bc;stop-opacity:1;" offset="0.261719"/><stop style="stop-color:#3653bc;stop-opacity:1;" offset="0.265625"/><stop style="stop-color:#3753bc;stop-opacity:1;" offset="0.269531"/><stop style="stop-color:#3853bd;stop-opacity:1;" offset="0.273438"/><stop style="stop-color:#3953bd;stop-opacity:1;" offset="0.277344"/><stop style="stop-color:#3954bd;stop-opacity:1;" offset="0.28125"/><stop style="stop-color:#3a54bd;stop-opacity:1;" offset="0.285156"/><stop style="stop-color:#3b54be;stop-opacity:1;" offset="0.289062"/><stop style="stop-color:#3c54be;stop-opacity:1;" offset="0.292969"/><stop style="stop-color:#3d54be;stop-opacity:1;" offset="0.296875"/><stop style="stop-color:#3d54be;stop-opacity:1;" offset="0.300781"/><stop style="stop-color:#3e54be;stop-opacity:1;" offset="0.304688"/><stop style="stop-color:#3f55bf;stop-opacity:1;" offset="0.308594"/><stop style="stop-color:#4055bf;stop-opacity:1;" offset="0.3125"/><stop style="stop-color:#4155bf;stop-opacity:1;" offset="0.316406"/><stop style="stop-color:#4155bf;stop-opacity:1;" offset="0.320312"/><stop style="stop-color:#4255c0;stop-opacity:1;" offset="0.324219"/><stop style="stop-color:#4355c0;stop-opacity:1;" offset="0.328125"/><stop style="stop-color:#4455c0;stop-opacity:1;" offset="0.332031"/><stop style="stop-color:#4555c0;stop-opacity:1;" offset="0.335938"/><stop style="stop-color:#4556c0;stop-opacity:1;" offset="0.339844"/><stop style="stop-color:#4656c1;stop-opacity:1;" offset="0.34375"/><stop style="stop-color:#4756c1;stop-opacity:1;" offset="0.347656"/><stop style="stop-color:#4856c1;stop-opacity:1;" offset="0.351562"/><stop style="stop-color:#4956c1;stop-opacity:1;" offset="0.355469"/><stop style="stop-color:#4956c2;stop-opacity:1;" offset="0.359375"/><stop style="stop-color:#4a56c2;stop-opacity:1;" offset="0.363281"/><stop style="stop-color:#4b57c2;stop-opacity:1;" offset="0.367188"/><stop style="stop-color:#4c57c2;stop-opacity:1;" offset="0.371094"/><stop style="stop-color:#4d57c2;stop-opacity:1;" offset="0.375"/><stop style="stop-color:#4d57c3;stop-opacity:1;" offset="0.378906"/><stop style="stop-color:#4e57c3;stop-opacity:1;" offset="0.382812"/><stop style="stop-color:#4f57c3;stop-opacity:1;" offset="0.386719"/><stop style="stop-color:#5057c3;stop-opacity:1;" offset="0.390625"/><stop style="stop-color:#5057c4;stop-opacity:1;" offset="0.394531"/><stop style="stop-color:#5158c4;stop-opacity:1;" offset="0.398438"/><stop style="stop-color:#5258c4;stop-opacity:1;" offset="0.402344"/><stop style="stop-color:#5358c4;stop-opacity:1;" offset="0.40625"/><stop style="stop-color:#5458c4;stop-opacity:1;" offset="0.410156"/><stop style="stop-color:#5458c5;stop-opacity:1;" offset="0.414062"/><stop style="stop-color:#5558c5;stop-opacity:1;" offset="0.417969"/><stop style="stop-color:#5658c5;stop-opacity:1;" offset="0.421875"/><stop style="stop-color:#5759c5;stop-opacity:1;" offset="0.425781"/><stop style="stop-color:#5859c6;stop-opacity:1;" offset="0.429688"/><stop style="stop-color:#5859c6;stop-opacity:1;" offset="0.433594"/><stop style="stop-color:#5959c6;stop-opacity:1;" offset="0.4375"/><stop style="stop-color:#5a59c6;stop-opacity:1;" offset="0.441406"/><stop style="stop-color:#5b59c6;stop-opacity:1;" offset="0.445312"/><stop style="stop-color:#5c59c7;stop-opacity:1;" offset="0.449219"/><stop style="stop-color:#5c59c7;stop-opacity:1;" offset="0.453125"/><stop style="stop-color:#5d5ac7;stop-opacity:1;" offset="0.457031"/><stop style="stop-color:#5e5ac7;stop-opacity:1;" offset="0.460938"/><stop style="stop-color:#5f5ac8;stop-opacity:1;" offset="0.464844"/><stop style="stop-color:#605ac8;stop-opacity:1;" offset="0.46875"/><stop style="stop-color:#605ac8;stop-opacity:1;" offset="0.472656"/><stop style="stop-color:#615ac8;stop-opacity:1;" offset="0.476562"/><stop style="stop-color:#625ac8;stop-opacity:1;" offset="0.480469"/><stop style="stop-color:#635bc9;stop-opacity:1;" offset="0.484375"/><stop style="stop-color:#645bc9;stop-opacity:1;" offset="0.488281"/><stop style="stop-color:#645bc9;stop-opacity:1;" offset="0.492188"/><stop style="stop-color:#655bc9;stop-opacity:1;" offset="0.496094"/><stop style="stop-color:#665bca;stop-opacity:1;" offset="0.5"/><stop style="stop-color:#675bca;stop-opacity:1;" offset="0.503906"/><stop style="stop-color:#675bca;stop-opacity:1;" offset="0.507812"/><stop style="stop-color:#685bca;stop-opacity:1;" offset="0.511719"/><stop style="stop-color:#695cca;stop-opacity:1;" offset="0.515625"/><stop style="stop-color:#6a5ccb;stop-opacity:1;" offset="0.519531"/><stop style="stop-color:#6b5ccb;stop-opacity:1;" offset="0.523438"/><stop style="stop-color:#6b5ccb;stop-opacity:1;" offset="0.527344"/><stop style="stop-color:#6c5ccb;stop-opacity:1;" offset="0.53125"/><stop style="stop-color:#6d5ccc;stop-opacity:1;" offset="0.535156"/><stop style="stop-color:#6e5ccc;stop-opacity:1;" offset="0.539062"/><stop style="stop-color:#6f5dcc;stop-opacity:1;" offset="0.542969"/><stop style="stop-color:#6f5dcc;stop-opacity:1;" offset="0.546875"/><stop style="stop-color:#705dcd;stop-opacity:1;" offset="0.550781"/><stop style="stop-color:#715dcd;stop-opacity:1;" offset="0.554688"/><stop style="stop-color:#725dcd;stop-opacity:1;" offset="0.558594"/><stop style="stop-color:#735dcd;stop-opacity:1;" offset="0.5625"/><stop style="stop-color:#735dcd;stop-opacity:1;" offset="0.566406"/><stop style="stop-color:#745dce;stop-opacity:1;" offset="0.570312"/><stop style="stop-color:#755ece;stop-opacity:1;" offset="0.574219"/><stop style="stop-color:#765ece;stop-opacity:1;" offset="0.578125"/><stop style="stop-color:#775ece;stop-opacity:1;" offset="0.582031"/><stop style="stop-color:#775ecf;stop-opacity:1;" offset="0.585938"/><stop style="stop-color:#785ecf;stop-opacity:1;" offset="0.589844"/><stop style="stop-color:#795ecf;stop-opacity:1;" offset="0.59375"/><stop style="stop-color:#7a5ecf;stop-opacity:1;" offset="0.597656"/><stop style="stop-color:#7b5fcf;stop-opacity:1;" offset="0.601562"/><stop style="stop-color:#7b5fd0;stop-opacity:1;" offset="0.605469"/><stop style="stop-color:#7c5fd0;stop-opacity:1;" offset="0.609375"/><stop style="stop-color:#7d5fd0;stop-opacity:1;" offset="0.613281"/><stop style="stop-color:#7e5fd0;stop-opacity:1;" offset="0.617188"/><stop style="stop-color:#7e5fd1;stop-opacity:1;" offset="0.621094"/><stop style="stop-color:#7f5fd1;stop-opacity:1;" offset="0.625"/><stop style="stop-color:#805fd1;stop-opacity:1;" offset="0.628906"/><stop style="stop-color:#8160d1;stop-opacity:1;" offset="0.632812"/><stop style="stop-color:#8260d1;stop-opacity:1;" offset="0.636719"/><stop style="stop-color:#8260d2;stop-opacity:1;" offset="0.640625"/><stop style="stop-color:#8360d2;stop-opacity:1;" offset="0.644531"/><stop style="stop-color:#8460d2;stop-opacity:1;" offset="0.648438"/><stop style="stop-color:#8560d2;stop-opacity:1;" offset="0.652344"/><stop style="stop-color:#8660d3;stop-opacity:1;" offset="0.65625"/><stop style="stop-color:#8661d3;stop-opacity:1;" offset="0.660156"/><stop style="stop-color:#8761d3;stop-opacity:1;" offset="0.664062"/><stop style="stop-color:#8861d3;stop-opacity:1;" offset="0.667969"/><stop style="stop-color:#8961d3;stop-opacity:1;" offset="0.671875"/><stop style="stop-color:#8a61d4;stop-opacity:1;" offset="0.675781"/><stop style="stop-color:#8a61d4;stop-opacity:1;" offset="0.679688"/><stop style="stop-color:#8b61d4;stop-opacity:1;" offset="0.683594"/><stop style="stop-color:#8c61d4;stop-opacity:1;" offset="0.6875"/><stop style="stop-color:#8d62d5;stop-opacity:1;" offset="0.691406"/><stop style="stop-color:#8e62d5;stop-opacity:1;" offset="0.695312"/><stop style="stop-color:#8e62d5;stop-opacity:1;" offset="0.699219"/><stop style="stop-color:#8f62d5;stop-opacity:1;" offset="0.703125"/><stop style="stop-color:#9062d5;stop-opacity:1;" offset="0.707031"/><stop style="stop-color:#9162d6;stop-opacity:1;" offset="0.710938"/><stop style="stop-color:#9262d6;stop-opacity:1;" offset="0.714844"/><stop style="stop-color:#9262d6;stop-opacity:1;" offset="0.71875"/><stop style="stop-color:#9363d6;stop-opacity:1;" offset="0.722656"/><stop style="stop-color:#9463d7;stop-opacity:1;" offset="0.726562"/><stop style="stop-color:#9563d7;stop-opacity:1;" offset="0.730469"/><stop style="stop-color:#9563d7;stop-opacity:1;" offset="0.734375"/><stop style="stop-color:#9663d7;stop-opacity:1;" offset="0.738281"/><stop style="stop-color:#9763d7;stop-opacity:1;" offset="0.742188"/><stop style="stop-color:#9863d8;stop-opacity:1;" offset="0.746094"/><stop style="stop-color:#9964d8;stop-opacity:1;" offset="0.75"/><stop style="stop-color:#9964d8;stop-opacity:1;" offset="0.753906"/><stop style="stop-color:#9a64d8;stop-opacity:1;" offset="0.757812"/><stop style="stop-color:#9b64d9;stop-opacity:1;" offset="0.761719"/><stop style="stop-color:#9c64d9;stop-opacity:1;" offset="0.765625"/><stop style="stop-color:#9d64d9;stop-opacity:1;" offset="0.769531"/><stop style="stop-color:#9d64d9;stop-opacity:1;" offset="0.773438"/><stop style="stop-color:#9e64d9;stop-opacity:1;" offset="0.777344"/><stop style="stop-color:#9f65da;stop-opacity:1;" offset="0.78125"/><stop style="stop-color:#a065da;stop-opacity:1;" offset="0.785156"/><stop style="stop-color:#a165da;stop-opacity:1;" offset="0.789062"/><stop style="stop-color:#a165da;stop-opacity:1;" offset="0.792969"/><stop style="stop-color:#a265db;stop-opacity:1;" offset="0.796875"/><stop style="stop-color:#a365db;stop-opacity:1;" offset="0.800781"/><stop style="stop-color:#a465db;stop-opacity:1;" offset="0.804688"/><stop style="stop-color:#a566db;stop-opacity:1;" offset="0.808594"/><stop style="stop-color:#a566db;stop-opacity:1;" offset="0.8125"/><stop style="stop-color:#a666dc;stop-opacity:1;" offset="0.816406"/><stop style="stop-color:#a766dc;stop-opacity:1;" offset="0.820312"/><stop style="stop-color:#a866dc;stop-opacity:1;" offset="0.824219"/><stop style="stop-color:#a966dc;stop-opacity:1;" offset="0.828125"/><stop style="stop-color:#a966dd;stop-opacity:1;" offset="0.832031"/><stop style="stop-color:#aa66dd;stop-opacity:1;" offset="0.835938"/><stop style="stop-color:#ab67dd;stop-opacity:1;" offset="0.839844"/><stop style="stop-color:#ac67dd;stop-opacity:1;" offset="0.84375"/><stop style="stop-color:#ac67dd;stop-opacity:1;" offset="0.847656"/><stop style="stop-color:#ad67de;stop-opacity:1;" offset="0.851562"/><stop style="stop-color:#ae67de;stop-opacity:1;" offset="0.855469"/><stop style="stop-color:#af67de;stop-opacity:1;" offset="0.859375"/><stop style="stop-color:#b067de;stop-opacity:1;" offset="0.863281"/><stop style="stop-color:#b068df;stop-opacity:1;" offset="0.867188"/><stop style="stop-color:#b168df;stop-opacity:1;" offset="0.871094"/><stop style="stop-color:#b268df;stop-opacity:1;" offset="0.875"/><stop style="stop-color:#b368df;stop-opacity:1;" offset="0.878906"/><stop style="stop-color:#b468df;stop-opacity:1;" offset="0.882812"/><stop style="stop-color:#b468e0;stop-opacity:1;" offset="0.886719"/><stop style="stop-color:#b568e0;stop-opacity:1;" offset="0.890625"/><stop style="stop-color:#b668e0;stop-opacity:1;" offset="0.894531"/><stop style="stop-color:#b769e0;stop-opacity:1;" offset="0.898438"/><stop style="stop-color:#b869e1;stop-opacity:1;" offset="0.902344"/><stop style="stop-color:#b869e1;stop-opacity:1;" offset="0.90625"/><stop style="stop-color:#b969e1;stop-opacity:1;" offset="0.910156"/><stop style="stop-color:#ba69e1;stop-opacity:1;" offset="0.914062"/><stop style="stop-color:#bb69e1;stop-opacity:1;" offset="0.917969"/><stop style="stop-color:#bc69e2;stop-opacity:1;" offset="0.921875"/><stop style="stop-color:#bc6ae2;stop-opacity:1;" offset="0.925781"/><stop style="stop-color:#bd6ae2;stop-opacity:1;" offset="0.929688"/><stop style="stop-color:#be6ae2;stop-opacity:1;" offset="0.933594"/><stop style="stop-color:#bf6ae3;stop-opacity:1;" offset="0.9375"/><stop style="stop-color:#c06ae3;stop-opacity:1;" offset="0.941406"/><stop style="stop-color:#c06ae3;stop-opacity:1;" offset="0.945312"/><stop style="stop-color:#c16ae3;stop-opacity:1;" offset="0.949219"/><stop style="stop-color:#c26ae3;stop-opacity:1;" offset="0.953125"/><stop style="stop-color:#c36be4;stop-opacity:1;" offset="0.957031"/><stop style="stop-color:#c36be4;stop-opacity:1;" offset="0.960938"/><stop style="stop-color:#c46be4;stop-opacity:1;" offset="0.964844"/><stop style="stop-color:#c56be4;stop-opacity:1;" offset="0.96875"/><stop style="stop-color:#c66be5;stop-opacity:1;" offset="0.972656"/><stop style="stop-color:#c76be5;stop-opacity:1;" offset="0.976562"/><stop style="stop-color:#c76be5;stop-opacity:1;" offset="0.980469"/><stop style="stop-color:#c86ce5;stop-opacity:1;" offset="0.984375"/><stop style="stop-color:#c96ce5;stop-opacity:1;" offset="0.988281"/><stop style="stop-color:#ca6ce6;stop-opacity:1;" offset="0.992188"/><stop style="stop-color:#cb6ce6;stop-opacity:1;" offset="0.996094"/><stop style="stop-color:#cb6ce6;stop-opacity:1;" offset="1"/></radialGradient><clipPath id="859ff857d5"><rect x="0" width="206" y="0" height="293"/></clipPath><clipPath id="097b56a4b5"><rect x="0" width="86" y="0" height="178"/></clipPath></defs><g id="dad844f7b8"><rect x="0" width="375" y="0" height="374.999991" style="fill:#ffffff;fill-opacity:1;stroke:none;"/><rect x="0" width="375" y="0" height="374.999991" style="fill:url(#97e1b59e4a);stroke:none;"/><g transform="matrix(1,0,0,1,99,28)"><g clip-path="url(#859ff857d5)"><g style="fill:#ffffff;fill-opacity:1;"><g transform="translate(0.795533, 219.673388)"><path style="stroke:none" d="M 50.625 34.890625 C 43.9375 34.890625 40.59375 31.625 40.59375 25.09375 C 40.59375 18.320312 46.789062 13.1875 59.1875 9.6875 C 92.320312 0.570312 116 -10.640625 130.21875 -23.953125 C 145.726562 -38.546875 153.484375 -58.648438 153.484375 -84.265625 C 153.484375 -98.097656 152.207031 -108.96875 149.65625 -116.875 C 147.113281 -124.78125 144.414062 -131.109375 141.5625 -135.859375 C 138.71875 -140.617188 135.203125 -144.742188 131.015625 -148.234375 C 122.117188 -155.535156 110.867188 -159.1875 97.265625 -159.1875 C 70.734375 -159.1875 53.59375 -145.691406 45.84375 -118.703125 C 43.257812 -109.503906 41.96875 -98.597656 41.96875 -85.984375 C 41.96875 -56.328125 49.644531 -36.863281 65 -27.59375 C 68.71875 -25.3125 73.125 -23.789062 78.21875 -23.03125 C 79.820312 -22.570312 81.003906 -21.472656 81.765625 -19.734375 C 83.128906 -16.609375 83.351562 -14.550781 82.4375 -13.5625 C 80.539062 -11.507812 76.644531 -10.578125 70.75 -10.765625 C 64.863281 -10.960938 59.332031 -11.9375 54.15625 -13.6875 C 48.988281 -15.4375 44.238281 -17.867188 39.90625 -20.984375 C 35.570312 -24.097656 31.734375 -27.742188 28.390625 -31.921875 C 25.046875 -36.109375 22.195312 -40.75 19.84375 -45.84375 C 15.050781 -56.175781 12.65625 -67.234375 12.65625 -79.015625 C 12.65625 -90.804688 13.890625 -101.28125 16.359375 -110.4375 C 18.828125 -119.59375 22.207031 -127.765625 26.5 -134.953125 C 30.800781 -142.140625 35.859375 -148.375 41.671875 -153.65625 C 47.492188 -158.9375 53.75 -163.285156 60.4375 -166.703125 C 73.582031 -173.546875 86.691406 -176.96875 99.765625 -176.96875 C 112.847656 -176.96875 124.234375 -175.046875 133.921875 -171.203125 C 143.617188 -167.367188 152.039062 -161.84375 159.1875 -154.625 C 174.695312 -139.039062 182.453125 -118.4375 182.453125 -92.8125 C 182.453125 -55.570312 168.613281 -27.21875 140.9375 -7.75 C 129.457031 0.226562 115.8125 6.613281 100 11.40625 L 110.84375 15.734375 C 124.59375 21.054688 135.15625 23.71875 142.53125 23.71875 C 159.945312 23.71875 172.035156 19.460938 178.796875 10.953125 C 181.378906 10.796875 183.316406 11.648438 184.609375 13.515625 C 185.898438 15.378906 186.546875 17.828125 186.546875 20.859375 C 186.546875 23.898438 185.519531 27.148438 183.46875 30.609375 C 181.414062 34.078125 178.53125 37.101562 174.8125 39.6875 C 166.75 45.382812 156.710938 48.234375 144.703125 48.234375 C 137.097656 48.234375 129.644531 46.84375 122.34375 44.0625 C 115.050781 41.289062 109.316406 38.921875 105.140625 36.953125 L 92.8125 31.59375 C 83.769531 27.707031 77.253906 25.765625 73.265625 25.765625 C 69.273438 25.765625 66.140625 26.03125 63.859375 26.5625 C 61.578125 27.09375 59.640625 27.78125 58.046875 28.625 C 55.992188 29.6875 53.519531 31.773438 50.625 34.890625 Z M 50.625 34.890625 "/></g></g></g></g><g transform="matrix(1,0,0,1,138,68)"><g clip-path="url(#097b56a4b5)"><g style="fill:#38b6ff;fill-opacity:1;"><g transform="translate(0.642901, 139.411048)"><path style="stroke:none" d="M 11.453125 0.5 C 8.910156 0.5 6.648438 -0.113281 4.671875 -1.34375 C 2.703125 -2.582031 1.71875 -4.640625 1.71875 -7.515625 C 1.71875 -12.035156 2.679688 -16.632812 4.609375 -21.3125 C 6.546875 -26 8.929688 -30.617188 11.765625 -35.171875 C 14.597656 -39.734375 17.429688 -44.191406 20.265625 -48.546875 C 23.097656 -52.898438 25.476562 -57.046875 27.40625 -60.984375 C 29.34375 -64.929688 30.3125 -68.585938 30.3125 -71.953125 C 30.3125 -74.671875 29.65625 -76.03125 28.34375 -76.03125 C 27.4375 -76.03125 26.40625 -75.3125 25.25 -73.875 C 24.101562 -72.4375 23.285156 -70.320312 22.796875 -67.53125 L 21.4375 -67.765625 C 21.4375 -72.453125 22.546875 -76.414062 24.765625 -79.65625 C 26.984375 -82.90625 29.816406 -85.347656 33.265625 -86.984375 C 36.710938 -88.628906 40.242188 -89.453125 43.859375 -89.453125 C 48.054688 -89.453125 51.976562 -88.257812 55.625 -85.875 C 59.28125 -83.5 61.8125 -79.722656 63.21875 -74.546875 C 63.789062 -72.492188 64.21875 -70.191406 64.5 -67.640625 C 64.789062 -65.097656 64.976562 -62.898438 65.0625 -61.046875 C 65.144531 -59.203125 65.1875 -58.28125 65.1875 -58.28125 C 65.34375 -51.625 65.484375 -45.992188 65.609375 -41.390625 C 65.734375 -36.796875 65.957031 -32.9375 66.28125 -29.8125 C 66.613281 -26.695312 67.066406 -24.070312 67.640625 -21.9375 C 68.222656 -19.882812 68.984375 -18.21875 69.921875 -16.9375 C 70.867188 -15.664062 72.082031 -15.03125 73.5625 -15.03125 C 74.957031 -15.03125 76.164062 -15.441406 77.1875 -16.265625 C 78.21875 -17.085938 78.898438 -17.867188 79.234375 -18.609375 L 80.09375 -17.984375 C 80.09375 -14.210938 79.351562 -10.925781 77.875 -8.125 C 76.394531 -5.332031 74.460938 -3.195312 72.078125 -1.71875 C 69.703125 -0.238281 67.195312 0.5 64.5625 0.5 C 62.019531 0.5 59.535156 -0.257812 57.109375 -1.78125 C 54.691406 -3.300781 52.578125 -5.660156 50.765625 -8.859375 C 48.960938 -12.066406 47.769531 -16.21875 47.1875 -21.3125 C 44.644531 -21.476562 42.160156 -21.625 39.734375 -21.75 C 37.316406 -21.875 35.117188 -21.9375 33.140625 -21.9375 C 31.828125 -21.9375 30.570312 -21.914062 29.375 -21.875 C 28.1875 -21.832031 27.019531 -21.769531 25.875 -21.6875 C 25.132812 -19.132812 24.535156 -16.566406 24.078125 -13.984375 C 23.628906 -11.398438 23.40625 -8.875 23.40625 -6.40625 C 23.40625 -4.519531 22.171875 -2.894531 19.703125 -1.53125 C 17.242188 -0.175781 14.492188 0.5 11.453125 0.5 Z M 29.9375 -33.140625 C 31.988281 -33.722656 34.164062 -34.113281 36.46875 -34.3125 C 38.769531 -34.519531 41.234375 -34.625 43.859375 -34.625 L 46.578125 -34.625 C 46.410156 -40.707031 46.179688 -46.953125 45.890625 -53.359375 C 45.609375 -59.765625 44.5625 -65.71875 42.75 -71.21875 C 42.09375 -65.300781 40.453125 -59.097656 37.828125 -52.609375 C 35.203125 -46.117188 32.570312 -39.628906 29.9375 -33.140625 Z M 29.9375 -33.140625 "/></g></g></g></g><g style="fill:#38b6ff;fill-opacity:1;"><g transform="translate(207.789718, 199.454013)"><path style="stroke:none" d="M 17.34375 -71.46875 C 16.195312 -71.46875 15.140625 -71.644531 14.171875 -72 C 13.203125 -72.351562 12.363281 -72.867188 11.65625 -73.546875 C 10.15625 -74.972656 9.40625 -76.890625 9.40625 -79.296875 C 9.40625 -81.597656 10.289062 -83.546875 12.0625 -85.140625 C 13.757812 -86.734375 15.789062 -87.53125 18.15625 -87.53125 C 20.53125 -87.53125 22.429688 -86.816406 23.859375 -85.390625 C 25.285156 -83.972656 26 -82.046875 26 -79.609375 C 26 -77.296875 25.148438 -75.34375 23.453125 -73.75 C 21.785156 -72.226562 19.75 -71.46875 17.34375 -71.46875 Z M 14.25 0 C 9.019531 0 6.40625 -1.1875 6.40625 -3.5625 C 6.40625 -4.78125 6.675781 -5.726562 7.21875 -6.40625 C 8.039062 -6.132812 8.789062 -6 9.46875 -6 C 12.613281 -6 14.15625 -8 14.09375 -12 L 14.09375 -46.078125 C 14.09375 -48.453125 13.757812 -50.101562 13.09375 -51.03125 C 12.4375 -51.96875 11.257812 -52.4375 9.5625 -52.4375 C 8.3125 -52.4375 7.175781 -52.285156 6.15625 -51.984375 C 5.550781 -51.910156 5.109375 -52.382812 4.828125 -53.40625 C 4.597656 -54.320312 4.734375 -55.128906 5.234375 -55.828125 C 5.742188 -56.523438 6.53125 -57.253906 7.59375 -58.015625 C 8.664062 -58.773438 9.847656 -59.441406 11.140625 -60.015625 C 13.921875 -61.335938 16.242188 -62 18.109375 -62 C 19.972656 -62 21.351562 -61.726562 22.25 -61.1875 C 23.15625 -60.644531 23.84375 -59.914062 24.3125 -59 C 25.0625 -57.507812 25.4375 -55.101562 25.4375 -51.78125 L 25.4375 -11.140625 C 25.539062 -8.460938 26.503906 -6.832031 28.328125 -6.25 C 28.835938 -6.082031 29.46875 -5.929688 30.21875 -5.796875 C 30.96875 -5.660156 31.632812 -5.5 32.21875 -5.3125 C 32.8125 -5.125 33.28125 -4.910156 33.625 -4.671875 C 34.195312 -4.234375 34.484375 -3.523438 34.484375 -2.546875 C 34.484375 -1.328125 34.234375 -0.394531 33.734375 0.25 C 33.015625 0.0820312 31.925781 0 30.46875 0 Z M 14.25 0 "/></g></g></g></svg>